HIERARCHY
ROOT WRIST
{
	OFFSET 0.000000 0.000000 0.000000
	CHANNELS 6 Xposition Yposition Zposition Yrotation Xrotation Zrotation
	JOINT THUMB_CMC_FE
	{
		OFFSET 0.225143 0.117753 -0.062308
		CHANNELS 3 Yrotation Xrotation Zrotation
		JOINT THUMB_CMC_AA
		{
			OFFSET 0.212856 -0.150507 0.098851
			CHANNELS 3 Yrotation Xrotation Zrotation
			JOINT THUMB_MCP_FE
			{
				OFFSET -0.322503 -0.167445 -0.031436
				CHANNELS 3 Yrotation Xrotation Zrotation
				JOINT THUMB_IP_FE
				{
					OFFSET 0.295233 -0.236404 0.025845
					CHANNELS 3 Yrotation Xrotation Zrotation
					End Site
					{
						OFFSET 0.000000 0.000000 0.000000
					}
				}
			}
		}
	}
	JOINT INDEX_MCP
	{
		OFFSET 1.076913 0.264198 -0.014768
		CHANNELS 3 Yrotation Xrotation Zrotation
		JOINT INDEX_PIP_FE
		{
			OFFSET 0.425053 0.013289 0.013619
			CHANNELS 3 Yrotation Xrotation Zrotation
			JOINT INDEX_DIP_FE
			{
				OFFSET 0.271505 -0.024898 0.000550
				CHANNELS 3 Yrotation Xrotation Zrotation
				End Site
				{
					OFFSET 0.000000 0.000000 0.000000
				}
			}
		}
	}
	JOINT MIDDLE_MCP
	{
		OFFSET 1.072991 0.019362 0.038780
		CHANNELS 3 Yrotation Xrotation Zrotation
		JOINT MIDDLE_PIP_FE
		{
			OFFSET 0.480704 0.002618 0.028696
			CHANNELS 3 Yrotation Xrotation Zrotation
			JOINT MIDDLE_DIP_FE
			{
				OFFSET 0.307486 -0.031129 -0.000643
				CHANNELS 3 Yrotation Xrotation Zrotation
				End Site
				{
					OFFSET 0.000000 0.000000 0.000000
				}
			}
		}
	}
	JOINT RING_MCP
	{
		OFFSET 0.994992 -0.195930 -0.005938
		CHANNELS 3 Yrotation Xrotation Zrotation
		JOINT RING_PIP_FE
		{
			OFFSET 0.436995 0.003792 0.019994
			CHANNELS 3 Yrotation Xrotation Zrotation
			JOINT RING_DIP_FE
			{
				OFFSET 0.295558 -0.038341 -0.006642
				CHANNELS 3 Yrotation Xrotation Zrotation
				End Site
				{
					OFFSET 0.000000 0.000000 0.000000
				}
			}
		}
	}
	JOINT PINKY_MCP
	{
		OFFSET 0.873858 -0.393246 -0.086282
		CHANNELS 3 Yrotation Xrotation Zrotation
		JOINT PINKY_PIP_FE
		{
			OFFSET 0.343972 -0.016492 0.013445
			CHANNELS 3 Yrotation Xrotation Zrotation
			JOINT PINKY_DIP_FE
			{
				OFFSET 0.224713 -0.036309 -0.010265
				CHANNELS 3 Yrotation Xrotation Zrotation
				End Site
				{
					OFFSET 0.000000 0.000000 0.000000
				}
			}
		}
	}
}
MOTION
Frames: 19
Frame Time: 0.008333334
-0.295733 0.042391 0.363539 -168.518100 -73.431210 3.835780 61.461170 4.834480 84.910750 119.352900 -30.976930 6.575371 -112.864000 -65.843260 -49.912960 4.562094 -8.459839 -3.084717 -163.914500 3.255360 -177.529200 -41.978580 -86.125670 48.066380 -2.052612 1.705001 -30.758270 -168.247000 -1.901733 -173.739300 -39.241670 -88.411320 42.091950 -6.002533 4.395456 -2.013641 -178.665600 -5.880554 -172.448100 -31.479770 -85.617800 28.481630 0.199306 0.562922 4.968518 164.628800 -7.835205 -163.049900 -48.977720 -83.530640 41.466280 5.539801 0.809168 0.421558 
-0.295908 0.042078 0.363794 -168.642700 -73.447570 3.939635 61.461180 4.834461 84.811240 119.352900 -30.976930 6.604364 -112.864000 -65.843260 -49.710850 4.562084 -8.459839 -3.398071 -163.841000 3.253868 -177.560700 -41.978300 -86.125700 48.156810 -2.052612 1.705005 -30.784300 -168.199300 -1.906219 -173.739100 -39.241490 -88.411320 42.103430 -6.002533 4.395450 -1.931061 -178.622300 -5.891174 -172.461900 -31.479580 -85.617740 28.276070 0.199304 0.562912 4.968521 164.714400 -7.867767 -163.193200 -48.977690 -83.530610 41.530260 5.539805 0.809170 0.632965 
-0.295893 0.041847 0.363725 -168.698600 -73.458220 3.992442 61.461180 4.834461 84.844470 119.352900 -30.976930 6.636286 -112.864000 -65.843260 -49.767730 4.562094 -8.459839 -3.456177 -163.868700 3.254418 -177.593900 -41.978180 -86.125700 48.114520 -2.052643 1.704998 -31.084630 -168.129600 -1.912781 -173.771900 -39.241000 -88.411190 42.240330 -6.002533 4.395460 -1.990631 -178.588000 -5.899536 -172.475500 -31.479710 -85.617800 28.348020 0.199306 0.562927 4.968519 164.725400 -7.871948 -163.068000 -48.977660 -83.530580 41.447420 5.539802 0.809164 0.632049 
-0.295841 0.040630 0.364094 -168.921500 -73.462520 4.201956 61.461180 4.834470 84.970860 119.352900 -30.976930 6.652179 -112.864000 -65.843260 -49.986390 4.562088 -8.459839 -3.408325 -163.789600 3.252786 -177.585800 -41.978300 -86.125610 48.138430 -2.052612 1.705007 -30.905490 -168.115800 -1.914063 -173.793200 -39.241490 -88.411190 42.090070 -6.002533 4.395439 -2.013123 -178.510800 -5.918365 -172.489700 -31.479830 -85.617860 28.447560 0.199305 0.562924 4.968516 164.800600 -7.900482 -163.080500 -48.977750 -83.530610 41.533280 5.539802 0.809153 0.665247 
-0.295890 0.041929 0.363956 -168.718900 -73.453670 3.997692 61.461170 4.834475 84.819890 119.352900 -30.976930 6.637632 -112.864000 -65.843260 -49.742340 4.562088 -8.459839 -3.499786 -163.861700 3.254268 -177.597200 -41.978420 -86.125670 48.016750 -2.052612 1.705022 -30.849210 -168.157600 -1.910126 -173.789000 -39.241700 -88.411440 42.142160 -6.002502 4.395465 -2.000244 -178.530000 -5.913666 -172.488800 -31.479920 -85.617860 28.511380 0.199307 0.562944 4.968516 164.796700 -7.898987 -163.086400 -48.977660 -83.530640 41.588570 5.539800 0.809183 0.614307 
-0.295867 0.041850 0.364024 -168.687300 -73.516940 3.964566 61.461170 4.834475 84.891110 119.352900 -30.976930 6.622183 -112.864000 -65.843260 -49.835540 4.562071 -8.459839 -3.258667 -163.919600 3.255458 -177.616000 -41.978550 -86.125700 48.021200 -2.052612 1.705016 -30.759000 -168.164900 -1.909454 -173.795300 -39.241910 -88.411560 42.195050 -6.002533 4.395447 -1.992432 -178.507900 -5.919067 -172.518700 -31.479710 -85.617800 28.548100 0.199306 0.562932 4.968519 164.804900 -7.902130 -163.092000 -48.977750 -83.530670 41.574090 5.539802 0.809184 0.587164 
-0.295988 0.041766 0.364117 -168.671600 -73.427490 3.963320 61.461190 4.834480 84.839700 119.352900 -30.976930 6.655387 -112.864000 -65.843260 -49.855130 4.562100 -8.459839 -3.270966 -163.930500 3.255671 -177.560300 -41.978270 -86.125550 47.924490 -2.052643 1.704996 -30.709960 -168.279600 -1.898712 -173.754600 -39.240940 -88.411440 41.944820 -6.002533 4.395435 -1.875946 -178.603500 -5.895752 -172.459700 -31.479800 -85.617860 28.401630 0.199306 0.562925 4.968519 164.597700 -7.823395 -163.019800 -48.977540 -83.530610 41.304580 5.539805 0.809164 0.565533 
-0.296005 0.041844 0.364304 -168.680800 -73.427250 3.964821 61.461190 4.834463 84.800050 119.352900 -30.976930 6.617047 -112.864000 -65.843260 -49.753850 4.562091 -8.459839 -3.545563 -163.922600 3.255506 -177.561700 -41.978360 -86.125700 47.938320 -2.052643 1.705010 -30.707580 -168.242100 -1.902222 -173.759100 -39.241210 -88.411320 42.098420 -6.002533 4.395444 -2.073090 -178.674300 -5.878479 -172.453300 -31.479830 -85.617830 28.198200 0.199308 0.562938 4.968518 164.644500 -7.841187 -163.024800 -48.977660 -83.530580 41.392530 5.539802 0.809176 0.555371 
-0.296140 0.041486 0.364314 -168.801600 -73.460540 4.082792 61.461180 4.834463 84.831790 119.352900 -30.976930 6.623170 -112.863900 -65.843230 -49.766880 4.562089 -8.459839 -3.556885 -163.872800 3.254490 -177.574200 -41.978210 -86.125700 47.958000 -2.052643 1.704990 -30.706210 -168.138000 -1.911957 -173.761600 -39.241390 -88.411320 42.140220 -6.002533 4.395444 -1.957123 -178.620800 -5.891510 -172.463000 -31.479710 -85.617830 28.175850 0.199303 0.562925 4.968521 164.716300 -7.868500 -163.004000 -48.977720 -83.530610 41.376340 5.539799 0.809190 0.708107 
-0.296056 0.041502 0.364724 -168.814700 -73.399230 4.092965 61.461170 4.834463 84.840010 119.352900 -30.976930 6.668511 -112.864000 -65.843230 -49.891170 4.562071 -8.459839 -3.463257 -163.841200 3.253858 -177.528300 -41.978390 -86.125520 47.962630 -2.052643 1.705009 -30.718780 -168.172400 -1.908722 -173.729600 -39.241300 -88.411440 42.033130 -6.002533 4.395447 -1.874634 -178.640100 -5.886810 -172.420300 -31.479860 -85.617800 28.186530 0.199305 0.562932 4.968514 164.623100 -7.833038 -162.957500 -48.977720 -83.530580 41.243050 5.539801 0.809177 0.685684 
-0.296181 0.041557 0.364290 -168.765300 -73.448850 4.051391 61.461180 4.834463 84.836290 119.352900 -30.976930 6.625309 -112.864000 -65.843260 -49.806760 4.562099 -8.459839 -3.534210 -163.895900 3.254967 -177.561200 -41.978390 -86.125670 47.942840 -2.052612 1.705003 -30.737400 -168.171700 -1.908813 -173.749800 -39.241820 -88.411440 42.078190 -6.002533 4.395452 -1.873260 -178.652300 -5.883850 -172.444500 -31.479710 -85.617800 28.184480 0.199305 0.562928 4.968521 164.676100 -7.853210 -162.984700 -48.977720 -83.530640 41.288910 5.539804 0.809154 0.431827 
-0.295987 0.041951 0.364421 -168.671400 -73.457430 3.940062 61.461190 4.834478 84.824110 119.352900 -30.976930 6.624086 -112.864000 -65.843260 -49.769960 4.562085 -8.459839 -3.298035 -164.007300 3.257227 -177.600700 -41.978490 -86.125610 47.787000 -2.052612 1.705004 -30.678340 -168.246400 -1.901794 -173.795700 -39.241850 -88.411320 41.935000 -6.002502 4.395452 -1.878296 -178.642400 -5.886261 -172.489400 -31.479830 -85.617800 28.287480 0.199305 0.562917 4.968517 164.630800 -7.835968 -163.009300 -48.977600 -83.530610 41.309790 5.539803 0.809166 0.463669 
-0.296201 0.041885 0.364393 -168.700300 -73.421140 3.981247 61.461170 4.834473 84.868320 119.352900 -30.976930 6.676543 -112.864000 -65.843230 -49.914400 4.562079 -8.459839 -3.239319 -163.905900 3.255181 -177.555500 -41.978390 -86.125670 47.947780 -2.052643 1.704994 -30.698390 -168.197500 -1.906372 -173.752700 -39.241490 -88.411560 42.137470 -6.002533 4.395451 -2.030548 -178.683700 -5.876160 -172.444700 -31.479890 -85.617830 28.182030 0.199304 0.562921 4.968518 164.640000 -7.839478 -163.050800 -48.977690 -83.530640 41.333050 5.539799 0.809190 0.169077 
-0.296333 0.041457 0.364209 -168.769100 -73.472720 4.047916 61.461180 4.834472 84.808690 119.352900 -30.976960 6.582828 -112.864000 -65.843260 -49.807220 4.562091 -8.459839 -3.285767 -163.932200 3.255709 -177.593400 -41.978420 -86.125550 47.884990 -2.052612 1.705013 -30.733730 -168.268500 -1.899719 -173.792600 -39.241520 -88.411440 41.818550 -6.002533 4.395445 -1.711670 -178.645500 -5.885498 -172.454300 -31.479830 -85.617800 28.247020 0.199306 0.562933 4.968518 164.701000 -7.862640 -163.013800 -48.977720 -83.530610 41.423130 5.539804 0.809168 0.497810 
-0.296141 0.042074 0.364415 -168.677900 -73.459050 3.958806 61.461170 4.834468 84.827440 119.352900 -30.976930 6.613055 -112.864000 -65.843260 -49.801270 4.562099 -8.459839 -3.570282 -163.941700 3.255910 -177.558200 -41.978390 -86.125610 47.906260 -2.052643 1.704996 -30.732420 -168.266900 -1.899872 -173.751200 -39.241940 -88.411560 41.892610 -6.002533 4.395446 -1.770538 -178.679100 -5.877289 -172.436900 -31.479740 -85.617830 28.189910 0.199306 0.562924 4.968519 164.656000 -7.845520 -163.013800 -48.977600 -83.530610 41.309610 5.539805 0.809165 0.126875 
-0.296186 0.041141 0.364645 -168.907400 -73.476620 4.165156 61.461180 4.834466 85.008590 119.352900 -30.976960 6.686466 -112.864000 -65.843260 -50.083070 4.562093 -8.459839 -3.377441 -163.854000 3.254134 -177.604300 -41.978360 -86.125550 47.934230 -2.052612 1.704998 -30.747250 -168.118800 -1.913788 -173.794900 -39.241490 -88.411560 42.049150 -6.002533 4.395458 -1.813446 -178.524400 -5.915039 -172.500300 -31.479680 -85.617800 28.403360 0.199304 0.562930 4.968520 164.769300 -7.888611 -163.054200 -48.977690 -83.530580 41.407040 5.539801 0.809177 0.070311 
-0.296195 0.041774 0.364483 -168.743700 -73.467860 4.026368 61.461180 4.834470 84.853130 119.352900 -30.976930 6.614081 -112.864000 -65.843260 -49.858700 4.562078 -8.459839 -3.482391 -163.940000 3.255878 -177.553200 -41.978330 -86.125610 47.873960 -2.052612 1.705023 -30.742890 -168.225800 -1.903748 -173.751300 -39.241700 -88.411560 42.025370 -6.002533 4.395461 -1.975739 -178.640600 -5.886688 -172.422500 -31.479860 -85.617860 28.204160 0.199307 0.562935 4.968518 164.690900 -7.858795 -162.935800 -48.977720 -83.530610 41.419620 5.539803 0.809178 0.467427 
-0.296410 0.041490 0.364449 -168.768800 -73.464600 4.068024 61.461160 4.834470 84.839290 119.352900 -30.976930 6.597137 -112.864000 -65.843230 -49.842620 4.562087 -8.459839 -3.556091 -164.014400 3.257391 -177.538400 -41.978270 -86.125550 47.770650 -2.052612 1.704986 -30.917360 -168.273800 -1.899231 -173.737600 -39.241640 -88.411320 41.901240 -6.002533 4.395439 -1.897095 -178.680300 -5.876984 -172.392200 -31.479680 -85.617830 28.152390 0.199307 0.562932 4.968517 164.678200 -7.854004 -162.944700 -48.977660 -83.530640 41.352140 5.539802 0.809175 0.316386 
-0.296326 0.041364 0.365335 -168.863300 -73.333470 4.131295 61.461190 4.834461 84.796100 119.352900 -30.976930 6.673117 -112.864000 -65.843230 -49.962370 4.562080 -8.459839 -3.503021 -163.853700 3.254117 -177.514500 -41.978210 -86.125610 47.936990 -2.052643 1.704991 -30.970670 -168.176900 -1.908325 -173.716600 -39.241270 -88.411320 42.064220 -6.002533 4.395446 -2.022827 -178.709300 -5.869934 -172.382100 -31.479860 -85.617830 28.123390 0.199304 0.562914 4.968518 164.482100 -7.779419 -162.924500 -48.977690 -83.530640 41.055330 5.539801 0.809173 0.547656 
